<svg width="1280" height="640" viewBox="0 0 1280 640" xmlns="http://www.w3.org/2000/svg" font-family="'Segoe UI', system-ui, -apple-system, sans-serif">
  <rect width="1280" height="640" fill="#ffffff"/>
  <rect width="1280" height="6" fill="#0ea5e9"/>

  <!-- Shield -->
  <path d="M640 72 L700 97 L700 152 Q700 197 640 217 Q580 197 580 152 L580 97 Z" fill="#0ea5e9" opacity="0.12"/>
  <path d="M640 72 L700 97 L700 152 Q700 197 640 217 Q580 197 580 152 L580 97 Z" fill="none" stroke="#0ea5e9" stroke-width="3"/>
  <text x="640" y="162" text-anchor="middle" font-size="46" fill="#0ea5e9">🔍</text>

  <!-- Title -->
  <text x="640" y="270" text-anchor="middle" font-size="56" font-weight="700" fill="#0f172a" letter-spacing="-1">mobile-security-mcp</text>

  <!-- Subtitle -->
  <text x="640" y="316" text-anchor="middle" font-size="22" fill="#64748b">Mobile App Security Analysis · MCP Server for Claude</text>

  <!-- Divider -->
  <line x1="420" y1="344" x2="860" y2="344" stroke="#e2e8f0" stroke-width="1.5"/>

  <!-- Android pills -->
  <rect x="100" y="362" width="220" height="34" rx="17" fill="#f0f9ff" stroke="#bae6fd" stroke-width="1.5"/>
  <text x="210" y="384" text-anchor="middle" font-size="13" fill="#0369a1" font-weight="500">apk_manifest_analyzer</text>

  <rect x="336" y="362" width="230" height="34" rx="17" fill="#f0f9ff" stroke="#bae6fd" stroke-width="1.5"/>
  <text x="451" y="384" text-anchor="middle" font-size="13" fill="#0369a1" font-weight="500">apk_permissions_checker</text>

  <rect x="582" y="362" width="210" height="34" rx="17" fill="#f0f9ff" stroke="#bae6fd" stroke-width="1.5"/>
  <text x="687" y="384" text-anchor="middle" font-size="13" fill="#0369a1" font-weight="500">android_api_extractor</text>

  <rect x="808" y="362" width="220" height="34" rx="17" fill="#f0f9ff" stroke="#bae6fd" stroke-width="1.5"/>
  <text x="918" y="384" text-anchor="middle" font-size="13" fill="#0369a1" font-weight="500">android_secrets_scanner</text>

  <rect x="1044" y="362" width="136" height="34" rx="17" fill="#f0f9ff" stroke="#bae6fd" stroke-width="1.5"/>
  <text x="1112" y="384" text-anchor="middle" font-size="13" fill="#0369a1" font-weight="500">+2 more</text>

  <!-- iOS pills -->
  <rect x="100" y="410" width="200" height="34" rx="17" fill="#fdf4ff" stroke="#e9d5ff" stroke-width="1.5"/>
  <text x="200" y="432" text-anchor="middle" font-size="13" fill="#7e22ce" font-weight="500">ios_manifest_analyzer</text>

  <rect x="316" y="410" width="220" height="34" rx="17" fill="#fdf4ff" stroke="#e9d5ff" stroke-width="1.5"/>
  <text x="426" y="432" text-anchor="middle" font-size="13" fill="#7e22ce" font-weight="500">ios_entitlements_checker</text>

  <rect x="552" y="410" width="218" height="34" rx="17" fill="#fdf4ff" stroke="#e9d5ff" stroke-width="1.5"/>
  <text x="661" y="432" text-anchor="middle" font-size="13" fill="#7e22ce" font-weight="500">ios_frameworks_detector</text>

  <rect x="786" y="410" width="190" height="34" rx="17" fill="#fdf4ff" stroke="#e9d5ff" stroke-width="1.5"/>
  <text x="881" y="432" text-anchor="middle" font-size="13" fill="#7e22ce" font-weight="500">ios_secrets_scanner</text>

  <rect x="992" y="410" width="188" height="34" rx="17" fill="#fdf4ff" stroke="#e9d5ff" stroke-width="1.5"/>
  <text x="1086" y="432" text-anchor="middle" font-size="13" fill="#7e22ce" font-weight="500">ios_google_services</text>

  <!-- Tagline -->
  <text x="640" y="510" text-anchor="middle" font-size="17" fill="#94a3b8">Android APK  ·  iOS IPA  ·  Claude AI  ·  No Code Required</text>

  <!-- Badges -->
  <rect x="490" y="534" width="92" height="26" rx="5" fill="#0ea5e9"/>
  <text x="536" y="552" text-anchor="middle" font-size="12" fill="white" font-weight="600">TypeScript</text>

  <rect x="596" y="534" width="60" height="26" rx="5" fill="#6366f1"/>
  <text x="626" y="552" text-anchor="middle" font-size="12" fill="white" font-weight="600">MCP</text>

  <rect x="670" y="534" width="60" height="26" rx="5" fill="#10b981"/>
  <text x="700" y="552" text-anchor="middle" font-size="12" fill="white" font-weight="600">MIT</text>

  <rect x="744" y="534" width="60" height="26" rx="5" fill="#f59e0b"/>
  <text x="774" y="552" text-anchor="middle" font-size="12" fill="white" font-weight="600">npm</text>
</svg>
